<?xml version="1.0" standalone="no"?>
<!DOCTYPE svg PUBLIC "-//W3C//DTD SVG 20010904//EN"
 "http://www.w3.org/TR/2001/REC-SVG-20010904/DTD/svg10.dtd">
<svg version="1.0" xmlns="http://www.w3.org/2000/svg"
 width="1280.000000pt" height="802.000000pt" viewBox="0 0 1280.000000 802.000000"
 preserveAspectRatio="xMidYMid meet">
<g transform="translate(0.000000,802.000000) scale(0.100000,-0.100000)"
fill="#000000" stroke="none">
<path d="M7658 7999 c-430 -44 -768 -129 -1141 -285 -70 -30 -729 -371 -1465
-758 -2764 -1454 -4800 -2525 -4901 -2577 -75 -39 -110 -63 -127 -89 l-24 -35
0 -936 0 -936 24 -36 c13 -19 482 -522 1041 -1116 733 -780 1023 -1082 1043
-1087 15 -3 33 -7 40 -10 7 -2 543 290 1190 650 647 359 1463 812 1812 1006
468 260 638 350 649 343 8 -5 303 -315 656 -688 404 -429 679 -712 745 -768
309 -261 706 -463 1113 -567 325 -82 774 -129 982 -101 44 5 130 15 190 21
1125 111 2216 786 2815 1742 93 149 239 442 294 593 93 252 153 499 176 720 6
61 16 129 21 152 12 54 12 264 0 334 -6 30 -15 99 -21 154 -57 496 -267 965
-604 1349 -34 38 -500 495 -1036 1015 -536 520 -1043 1010 -1125 1090 -174
169 -257 239 -410 343 -364 249 -805 410 -1270 463 -77 8 -176 20 -220 25
-112 14 -241 11 -447 -11z m446 -209 c608 -39 1136 -236 1546 -578 107 -89
1450 -1389 1450 -1403 0 -14 -21 -11 -101 16 -301 104 -632 155 -994 155 -512
0 -994 -101 -1475 -309 -106 -46 -522 -268 -1325 -708 -643 -352 -1543 -845
-2000 -1096 -456 -250 -1324 -725 -1928 -1056 -604 -330 -1104 -601 -1111
-601 -17 0 -1856 1975 -1856 1994 0 8 275 159 712 389 392 206 1665 875 2828
1487 1163 612 2225 1171 2360 1242 135 71 295 152 356 178 385 168 784 266
1180 289 191 12 186 12 358 1z m2246 -2040 c715 -88 1319 -404 1719 -900 275
-341 441 -742 491 -1190 14 -124 14 -376 0 -515 -26 -262 -124 -619 -240 -874
-107 -236 -262 -487 -436 -706 -115 -144 -378 -406 -529 -527 -705 -564 -1554
-849 -2400 -806 -410 21 -755 109 -1110 283 -754 371 -1223 1055 -1295 1890
-5 66 -10 153 -10 192 0 66 -3 76 -29 105 -61 69 103 153 -2179 -1115 -1135
-631 -2068 -1145 -2073 -1142 -5 4 -9 317 -9 780 l0 775 22 14 c13 8 421 232
908 499 487 266 1430 782 2095 1147 3545 1942 3243 1780 3490 1875 319 124
645 195 1045 229 78 7 452 -3 540 -14z m-9672 -2345 c189 -202 342 -374 340
-382 -3 -13 -650 -370 -690 -381 -17 -4 -18 28 -18 568 0 453 3 571 13 568 6
-2 166 -170 355 -373z m897 -965 l375 -404 -2 -665 c-2 -432 -6 -666 -13 -668
-10 -3 -1547 1630 -1575 1673 -8 13 -12 25 -10 28 18 16 828 446 837 444 7 -2
181 -185 388 -408z m4766 -107 c13 -129 37 -258 71 -391 41 -158 42 -162 31
-162 -13 0 -443 458 -443 473 0 17 312 189 323 178 5 -5 13 -49 18 -98z"/>
<path d="M6557 7267 c-392 -202 -614 -323 -639 -348 -23 -22 -28 -37 -28 -74
0 -45 2 -47 127 -178 858 -891 1189 -1228 1210 -1233 13 -4 38 -4 56 -1 40 7
762 386 800 420 22 20 27 33 27 71 0 37 -6 52 -32 83 -101 115 -1265 1311
-1291 1326 -18 9 -40 17 -50 17 -10 0 -91 -38 -180 -83z m714 -731 c299 -311
544 -570 544 -577 0 -14 -522 -292 -535 -284 -5 3 -204 207 -441 453 -238 246
-484 500 -548 565 -99 101 -113 120 -100 132 20 19 501 273 520 274 8 1 260
-253 560 -563z"/>
</g>
</svg>
